<svg width="103" height="68" viewBox="0 0 103 68" fill="none" xmlns="http://www.w3.org/2000/svg">
<path d="M54.6079 67.1483H13.7375C6.15624 67.1483 0 60.9921 0 53.4109C0 46.2856 5.4722 40.4144 12.4264 39.7304C12.3694 39.2173 12.3125 38.7613 12.3125 38.2483C12.3125 27.1899 21.3187 18.2406 32.3201 18.2406C36.4243 18.2406 40.4144 19.4946 43.7205 21.8317C44.3476 22.2877 44.5186 23.1998 44.0626 23.8268C43.6066 24.4538 42.6945 24.6248 42.0675 24.1688C39.2174 22.1737 35.7973 21.0907 32.2632 21.0907C22.8008 21.0907 15.1055 28.786 15.1055 38.2483C15.1055 39.1603 15.2196 40.0154 15.3906 40.8704L15.6186 42.4095L13.6805 42.5235C7.63828 42.5235 2.79313 47.4256 2.79313 53.4109C2.79313 59.3961 7.69528 64.2982 13.6805 64.2982H54.6079C62.1322 64.2982 68.2314 58.199 68.2314 50.6748C68.2314 49.7627 68.1174 48.8507 67.9464 47.9387C67.7754 47.1976 68.2884 46.3996 69.0865 46.2856C69.8275 46.1716 70.6255 46.6276 70.7395 47.4256C70.9675 48.5087 71.0815 49.6487 71.0815 50.7318C71.0815 59.7951 63.6713 67.1483 54.6079 67.1483Z" fill="white"/>
<path d="M85.7307 48.9077H44.8603C37.279 48.9077 31.1228 42.7515 31.1228 35.1702C31.1228 28.045 36.595 22.1738 43.5492 21.4898C43.4922 20.9767 43.4353 20.5207 43.4353 20.0077C43.4353 8.94932 52.3846 0 63.443 0C73.1333 0 81.2846 6.89725 82.9947 16.3026C83.9637 16.1316 84.8187 16.0176 85.7307 16.0176C94.7941 16.0176 102.204 23.3708 102.204 32.4911C102.204 41.6115 94.7941 48.9077 85.7307 48.9077ZM63.443 2.8501C53.9806 2.8501 46.2854 10.5454 46.2854 20.0077C46.2854 20.9197 46.3993 21.7748 46.5703 22.6298L46.7984 24.1689L44.8603 24.2829C38.8181 24.2829 33.9729 29.185 33.9729 35.1702C33.9729 41.1555 38.8751 46.0576 44.8603 46.0576H85.7307C93.255 46.0576 99.3542 39.9584 99.3542 32.4342C99.3542 24.9099 93.255 18.8107 85.7307 18.8107C84.6477 18.8107 83.5077 18.9817 82.1966 19.3237L80.6006 19.7797L80.4296 18.1266C79.5175 9.40533 72.2213 2.8501 63.443 2.8501Z" fill="white"/>
</svg>
