<svg width="35" height="62" viewBox="0 0 35 62" fill="none" xmlns="http://www.w3.org/2000/svg">
<path d="M21.5586 57.0425L14.2773 57.0038C13.7351 57.0038 13.3091 56.5777 13.3091 56.0355C13.3091 55.4933 13.7351 55.0673 14.2773 55.0673L21.5586 55.106C22.1008 55.106 22.5268 55.532 22.5268 56.0742C22.5268 56.6165 22.1008 57.0425 21.5586 57.0425Z" fill="white"/>
<path d="M19.6996 62L16.1365 61.9613C15.5942 61.9613 15.1682 61.4965 15.1682 60.993C15.1682 60.4508 15.5942 60.0248 16.1365 60.0248L19.6996 60.0635C20.2418 60.0635 20.6679 60.5283 20.6679 61.0318C20.6679 61.574 20.2418 62 19.6996 62Z" fill="white"/>
<path d="M21.5586 51.0394H13.5415L12.1472 46.3918C9.93958 39.1105 6.26024 32.5264 2.58089 26.5233C-0.904817 20.7912 -0.86609 13.7424 2.7358 8.04904C7.8869 -0.00680543 18.6926 -2.4468 26.8259 2.7043C30.8538 5.26048 33.6424 9.52078 34.4944 14.4395C35.3465 19.3969 34.1846 24.3544 31.2411 28.1499C30.9313 28.576 30.3116 28.6534 29.8856 28.3049C29.4595 27.995 29.3821 27.3753 29.7306 26.9493C32.3255 23.6185 33.3713 19.1646 32.5967 14.7881C31.8221 10.4116 29.3433 6.61603 25.7802 4.33096C18.5377 -0.239185 8.97134 1.89097 4.36246 9.09475C1.1866 14.1297 1.10914 20.4039 4.24627 25.5163C8.00309 31.6356 11.7599 38.2972 14.0062 45.8108L14.9745 49.0642H21.5586C22.1008 49.0642 22.5268 49.4902 22.5268 50.0324C22.5268 50.5746 22.1008 51.0394 21.5586 51.0394Z" fill="white"/>
</svg>
