<svg width="102" height="62" viewBox="0 0 102 62" fill="none" xmlns="http://www.w3.org/2000/svg">
<path d="M57.3693 36.8234C56.6853 36.8234 56.0583 36.5954 55.6022 36.1394L47.166 28.1591C46.5959 27.6461 46.5959 26.734 47.109 26.164C47.622 25.594 48.534 25.594 49.104 26.107L57.5403 34.0873L62.0435 27.7031C62.4995 27.133 63.1835 26.734 63.9246 26.677C64.6086 26.563 65.4066 26.848 65.9196 27.3611L71.6198 32.6052L77.377 23.3139C77.8331 22.6299 78.6881 22.4589 79.3721 22.9149C80.0561 23.3709 80.2271 24.2259 79.7711 24.91L73.6719 34.2013C73.2729 34.8283 72.5889 35.2844 71.7908 35.3414C71.0498 35.4554 70.2518 35.1703 69.6818 34.6573L63.9816 29.4131L59.4784 35.7973C59.0224 36.3674 58.3384 36.7664 57.5973 36.8234C57.4833 36.8234 57.4263 36.8234 57.3693 36.8234Z" fill="white"/>
<path d="M100.007 61.2202C99.5508 61.2202 99.0378 60.9922 98.8098 60.5362L64.2666 2.96413L29.7233 60.5362C29.3243 61.2202 28.4123 61.4482 27.7853 61.0492C27.1013 60.6502 26.8733 59.7951 27.2723 59.1111L61.9865 1.19704C62.9555 -0.399014 65.5206 -0.399014 66.4897 1.19704L101.204 59.0541C101.603 59.7381 101.375 60.5932 100.691 60.9922C100.52 61.1632 100.292 61.2202 100.007 61.2202Z" fill="white"/>
<path d="M1.45038 61.2201C1.22237 61.2201 0.937367 61.1631 0.709359 60.9921C0.0253349 60.5931 -0.202674 59.7381 0.19634 59.054L24.7072 18.2406C25.6762 16.6446 28.2413 16.6446 29.2104 18.2406L41.6938 39.0463C42.0928 39.7303 41.8648 40.5854 41.1808 40.9844C40.4968 41.3834 39.6417 41.1554 39.2427 40.4714L26.9303 19.9507L2.64742 60.4221C2.41941 60.9921 1.9634 61.2201 1.45038 61.2201Z" fill="white"/>
</svg>
