<svg width="80" height="97" viewBox="0 0 80 97" fill="none" xmlns="http://www.w3.org/2000/svg">
<path d="M25.4797 36.924C19.9505 36.924 14.7633 34.3019 11.5142 29.6278C7.46706 23.8706 7.35304 16.2893 11.2292 10.3611L11.5142 9.90507L12.0842 9.79107C18.9815 8.13801 26.0497 10.8171 30.0969 16.6313C34.144 22.3885 34.258 29.9698 30.3819 35.898L30.0969 36.354L29.5268 36.468C28.1588 36.753 26.7907 36.924 25.4797 36.924ZM13.2813 12.4132C10.3741 17.2583 10.5451 23.3005 13.8513 27.9747C17.1004 32.6489 22.7436 34.872 28.2728 33.7889C31.1799 28.9437 31.0089 22.9015 27.7028 18.2274C24.3966 13.5532 18.8675 11.3871 13.2813 12.4132Z" fill="white"/>
<path d="M54.4369 40.0021C52.4988 40.0021 50.5037 39.7741 48.5657 39.3181L47.9956 39.2041L47.7106 38.7481C42.0674 30.0838 42.2384 19.0824 48.1666 10.6461C54.0948 2.2098 64.4122 -1.66634 74.4446 0.670746L75.0146 0.784731L75.2996 1.24076C80.9428 9.90506 80.7718 20.9065 74.8436 29.3428C70.1124 36.126 62.4741 40.0021 54.4369 40.0021ZM49.8197 36.639C58.541 38.5201 67.4333 34.986 72.5635 27.6897C77.6937 20.3934 77.9787 10.8171 73.2475 3.23582C64.5262 1.35475 55.6339 4.88888 50.5037 12.1851C45.3735 19.5384 45.0885 29.0577 49.8197 36.639Z" fill="white"/>
<path d="M38.4764 96.3201C17.2716 96.3201 0 79.0485 0 57.8438V56.4187H76.9527V57.8438C76.9527 79.0485 59.6811 96.3201 38.4764 96.3201ZM2.8501 59.2688C3.59113 78.2505 19.2667 93.47 38.4764 93.47C57.686 93.47 73.3046 78.2505 74.1026 59.2688H2.8501Z" fill="white"/>
<path d="M38.7042 57.8437C38.6472 57.8437 38.5902 57.8437 38.5332 57.8437C37.1082 57.7867 35.8541 56.9317 35.3411 55.5636L27.8739 35.727L19.6086 24.2695C19.1525 23.6425 19.2666 22.7305 19.9506 22.2745C20.5776 21.8184 21.4896 21.9325 21.9457 22.6165L30.496 34.5869L38.0202 54.5946C38.1912 54.9936 38.5332 55.0506 38.7042 55.0506C38.8752 55.0506 39.2173 55.0506 39.4453 54.6516L47.6535 37.38C47.9956 36.696 48.8506 36.354 49.5346 36.696C50.2186 37.038 50.5607 37.893 50.2187 38.5771L42.0104 55.9056C41.3263 57.1027 40.0723 57.8437 38.7042 57.8437Z" fill="white"/>
<path d="M48.7935 38.7481C48.5085 38.7481 48.2804 38.6341 48.0524 38.4631C47.4254 38.0071 47.3114 37.095 47.7674 36.468L59.7949 20.5645C60.2509 19.9374 61.1629 19.8234 61.7899 20.2794C62.4169 20.7355 62.531 21.6475 62.075 22.2745L50.0475 38.1781C49.7625 38.5771 49.2495 38.7481 48.7935 38.7481Z" fill="white"/>
</svg>
