<svg width="93" height="91" viewBox="0 0 93 91" fill="none" xmlns="http://www.w3.org/2000/svg">
<path d="M36.41 80.8988H8.99207C6.76899 80.8988 4.71691 79.7587 3.63387 77.8207C2.55083 75.8826 2.49383 73.5455 3.63387 71.6074L15.3193 51.3717L15.9463 58.269C16.0033 59.01 16.6304 59.58 17.3714 59.58C17.4284 59.58 17.4854 59.58 17.4854 59.58C18.2834 59.523 18.8534 58.839 18.7964 58.041L17.7704 47.0396C17.7704 46.9256 17.8274 46.8686 17.7704 46.7546C17.7134 46.5265 17.4854 46.4695 17.3714 46.2985C17.3144 46.1845 17.2574 46.1275 17.1434 46.0135C17.0294 45.9565 16.9153 45.9565 16.8013 45.8995C16.6303 45.8425 16.4593 45.7285 16.2313 45.7285C16.1173 45.7285 16.0603 45.8425 16.0033 45.8425H15.9463C15.8323 45.8425 15.7183 45.8995 15.6043 45.9565L5.62895 49.5477C4.88793 49.8327 4.4889 50.6307 4.77391 51.3717C5.00192 51.9417 5.51495 52.3407 6.14197 52.3407C6.31298 52.3407 6.48397 52.3408 6.59798 52.2838L12.9252 50.0037L1.23979 70.1824C-0.413265 73.0325 -0.413265 76.3956 1.23979 79.2457C2.89285 82.0958 5.79996 83.7489 9.10608 83.7489H36.524C37.3221 83.7489 37.9491 83.1218 37.9491 82.3238C37.9491 81.5258 37.2081 80.8988 36.41 80.8988Z" fill="white"/>
<path d="M91.1319 70.1824L77.3944 46.4696C76.9954 45.7855 76.1403 45.5575 75.4563 45.9565C74.7723 46.3555 74.5443 47.2106 74.9433 47.8946L88.6808 71.6074C89.8208 73.5455 89.8208 75.8826 88.6808 77.8207C87.5407 79.7587 85.5457 80.9558 83.3226 80.9558H59.7808L65.595 76.8516C66.222 76.3956 66.393 75.4836 65.937 74.8566C65.481 74.2295 64.569 74.0585 63.9419 74.5145L54.9356 80.8988C54.8786 80.9558 54.7646 80.9558 54.7076 81.0128C54.5936 81.1838 54.5936 81.3548 54.5366 81.5828C54.4796 81.6968 54.4226 81.8108 54.4226 81.9248C54.4226 82.0388 54.4796 82.1528 54.5366 82.3238C54.5936 82.4948 54.5366 82.7228 54.6506 82.8938C54.7076 82.9508 54.8216 82.9508 54.8786 83.0078C55.0496 83.2929 55.2206 83.4639 55.5626 83.5779L63.3719 90.1901C63.6569 90.4181 63.9419 90.5321 64.2839 90.5321C64.6829 90.5321 65.082 90.3611 65.367 90.0191C65.88 89.3921 65.823 88.537 65.196 88.024L60.2368 83.8059H83.4366C86.7427 83.8059 89.6499 82.0958 91.3029 79.2457C92.728 76.3956 92.7279 72.9755 91.1319 70.1824Z" fill="white"/>
<path d="M67.1912 30.0529L69.5852 19.7356C69.7562 18.9946 69.3003 18.1965 68.5022 18.0255C67.7042 17.7975 66.9632 18.3105 66.7922 19.1086L65.3101 25.6638L54.6507 4.91506C53.1687 2.00795 50.3186 0.183889 47.0124 0.012883C43.7063 -0.158123 40.7422 1.38093 38.9182 4.17403L24.0976 27.1458C23.6416 27.8299 23.8696 28.6849 24.4967 29.1409C25.1237 29.5969 26.0357 29.3689 26.4917 28.7419L41.3693 5.71308C42.5663 3.83202 44.6184 2.74898 46.8984 2.86298C49.1215 2.97699 51.1166 4.23103 52.1426 6.2261L62.802 27.0318L56.7028 23.8397C56.0188 23.4407 55.1637 23.7257 54.7647 24.4667C54.4227 25.1508 54.6507 26.0058 55.3917 26.4048L65.1961 31.478C65.3101 31.535 65.3101 31.592 65.4241 31.649C65.5381 31.649 65.6521 31.706 65.7661 31.706C65.8801 31.706 65.9371 31.649 66.0511 31.592C66.2792 31.535 66.4501 31.535 66.6212 31.364C66.7922 31.136 66.9632 31.022 67.0772 30.794C67.1342 30.68 67.0772 30.623 67.0772 30.509V30.452C67.1912 30.281 67.1912 30.1669 67.1912 30.0529Z" fill="white"/>
</svg>
