<svg width="85" height="40" viewBox="0 0 85 40" fill="none" xmlns="http://www.w3.org/2000/svg">
<path d="M11.936 26C11.6867 26 11.562 25.868 11.562 25.604V10.446C11.562 10.182 11.6867 10.05 11.936 10.05H12.376C12.4933 10.05 12.5887 10.094 12.662 10.182C12.7353 10.2553 12.772 10.3433 12.772 10.446V25.604C12.772 25.7213 12.7353 25.8167 12.662 25.89C12.5887 25.9633 12.4933 26 12.376 26H11.936ZM13.146 20.874L17.128 16.408C17.304 16.2027 17.5167 16.1 17.766 16.1H18.514C18.6313 16.1 18.6973 16.1293 18.712 16.188C18.7413 16.2467 18.7193 16.32 18.646 16.408L14.664 20.874L19.064 25.714C19.2253 25.9047 19.1813 26 18.932 26H18.184C17.9347 26 17.7147 25.9047 17.524 25.714L13.146 20.874ZM30.808 24.724C29.8254 23.7413 29.334 22.5167 29.334 21.05C29.334 19.5833 29.8254 18.366 30.808 17.398C31.7907 16.4153 33.0154 15.924 34.482 15.924C35.934 15.924 37.1514 16.4153 38.134 17.398C39.1167 18.366 39.608 19.5833 39.608 21.05C39.608 22.5167 39.1167 23.7413 38.134 24.724C37.1514 25.692 35.934 26.176 34.482 26.176C33.0154 26.176 31.7907 25.692 30.808 24.724ZM31.71 18.256C30.9767 19.004 30.61 19.9353 30.61 21.05C30.61 22.1647 30.9767 23.096 31.71 23.844C32.4434 24.592 33.36 24.966 34.46 24.966C35.5747 24.966 36.4987 24.592 37.232 23.844C37.9654 23.096 38.332 22.1647 38.332 21.05C38.332 19.9353 37.9654 19.004 37.232 18.256C36.4987 17.508 35.5747 17.134 34.46 17.134C33.36 17.134 32.4434 17.508 31.71 18.256ZM50.7658 25.604V10.446C50.7658 10.182 50.8905 10.05 51.1398 10.05H51.5798C51.6972 10.05 51.7925 10.094 51.8658 10.182C51.9392 10.2553 51.9758 10.3433 51.9758 10.446V25.604C51.9758 25.7213 51.9392 25.8167 51.8658 25.89C51.7925 25.9633 51.6972 26 51.5798 26H51.1398C50.8905 26 50.7658 25.868 50.7658 25.604ZM64.5978 24.724C63.6151 23.7413 63.1238 22.5167 63.1238 21.05C63.1238 19.5833 63.6151 18.366 64.5978 17.398C65.5805 16.4153 66.8051 15.924 68.2718 15.924C69.7238 15.924 70.9411 16.4153 71.9238 17.398C72.9065 18.366 73.3978 19.5833 73.3978 21.05C73.3978 22.5167 72.9065 23.7413 71.9238 24.724C70.9411 25.692 69.7238 26.176 68.2718 26.176C66.8051 26.176 65.5805 25.692 64.5978 24.724ZM65.4998 18.256C64.7665 19.004 64.3998 19.9353 64.3998 21.05C64.3998 22.1647 64.7665 23.096 65.4998 23.844C66.2331 24.592 67.1498 24.966 68.2498 24.966C69.3645 24.966 70.2885 24.592 71.0218 23.844C71.7551 23.096 72.1218 22.1647 72.1218 21.05C72.1218 19.9353 71.7551 19.004 71.0218 18.256C70.2885 17.508 69.3645 17.134 68.2498 17.134C67.1498 17.134 66.2331 17.508 65.4998 18.256Z" fill="#202020"/>
</svg>
