<svg width="82" height="24" viewBox="0 0 82 24" fill="none" xmlns="http://www.w3.org/2000/svg">
<path d="M15.584 17C15.38 17 15.278 16.892 15.278 16.676V4.274C15.278 4.058 15.38 3.95 15.584 3.95H15.944C16.04 3.95 16.118 3.986 16.178 4.058C16.238 4.118 16.268 4.19 16.268 4.274V16.676C16.268 16.772 16.238 16.85 16.178 16.91C16.118 16.97 16.04 17 15.944 17H15.584ZM16.574 12.806L19.832 9.152C19.976 8.984 20.15 8.9 20.354 8.9H20.966C21.062 8.9 21.116 8.924 21.128 8.972C21.152 9.02 21.134 9.08 21.074 9.152L17.816 12.806L21.416 16.766C21.548 16.922 21.512 17 21.308 17H20.696C20.492 17 20.312 16.922 20.156 16.766L16.574 12.806ZM31.0248 15.956C30.2208 15.152 29.8188 14.15 29.8188 12.95C29.8188 11.75 30.2208 10.754 31.0248 9.962C31.8288 9.158 32.8308 8.756 34.0308 8.756C35.2188 8.756 36.2148 9.158 37.0188 9.962C37.8228 10.754 38.2248 11.75 38.2248 12.95C38.2248 14.15 37.8228 15.152 37.0188 15.956C36.2148 16.748 35.2188 17.144 34.0308 17.144C32.8308 17.144 31.8288 16.748 31.0248 15.956ZM31.7628 10.664C31.1628 11.276 30.8628 12.038 30.8628 12.95C30.8628 13.862 31.1628 14.624 31.7628 15.236C32.3628 15.848 33.1128 16.154 34.0128 16.154C34.9248 16.154 35.6808 15.848 36.2808 15.236C36.8808 14.624 37.1808 13.862 37.1808 12.95C37.1808 12.038 36.8808 11.276 36.2808 10.664C35.6808 10.052 34.9248 9.746 34.0128 9.746C33.1128 9.746 32.3628 10.052 31.7628 10.664ZM47.3539 16.676V4.274C47.3539 4.058 47.4559 3.95 47.6599 3.95H48.0199C48.1159 3.95 48.1939 3.986 48.2539 4.058C48.3139 4.118 48.3439 4.19 48.3439 4.274V16.676C48.3439 16.772 48.3139 16.85 48.2539 16.91C48.1939 16.97 48.1159 17 48.0199 17H47.6599C47.4559 17 47.3539 16.892 47.3539 16.676ZM58.6709 15.956C57.8669 15.152 57.4649 14.15 57.4649 12.95C57.4649 11.75 57.8669 10.754 58.6709 9.962C59.4749 9.158 60.4769 8.756 61.6769 8.756C62.8649 8.756 63.8609 9.158 64.6649 9.962C65.4689 10.754 65.8709 11.75 65.8709 12.95C65.8709 14.15 65.4689 15.152 64.6649 15.956C63.8609 16.748 62.8649 17.144 61.6769 17.144C60.4769 17.144 59.4749 16.748 58.6709 15.956ZM59.4089 10.664C58.8089 11.276 58.5089 12.038 58.5089 12.95C58.5089 13.862 58.8089 14.624 59.4089 15.236C60.0089 15.848 60.7589 16.154 61.6589 16.154C62.5709 16.154 63.3269 15.848 63.9269 15.236C64.5269 14.624 64.8269 13.862 64.8269 12.95C64.8269 12.038 64.5269 11.276 63.9269 10.664C63.3269 10.052 62.5709 9.746 61.6589 9.746C60.7589 9.746 60.0089 10.052 59.4089 10.664Z" fill="#202020"/>
</svg>
