<svg width="47" height="92" viewBox="0 0 47 92" fill="none" xmlns="http://www.w3.org/2000/svg">
<path d="M23.5231 68.6443C23.3521 68.6443 23.1811 68.6443 22.9531 68.6443C22.0981 68.6443 21.2431 68.5873 20.445 68.4733C12.8638 67.6183 6.47953 63.5142 2.8314 57.1869C-0.531714 51.3157 -0.930729 44.4755 1.80537 38.3763L17.4809 3.32002C18.393 1.32495 20.388 0.0139035 22.7821 0.0139035C25.1192 -0.157103 27.2283 1.26795 28.1403 3.26302L44.5569 38.6043C47.407 44.7605 47.065 51.7147 43.5879 57.643C39.8827 63.9132 33.0995 68.0173 25.5182 68.5303C24.8342 68.6443 24.1502 68.6443 23.5231 68.6443ZM22.7821 2.864C21.8131 2.864 20.559 3.32002 20.046 4.46006L4.42746 39.5163C2.09038 44.7605 2.37539 50.6887 5.28249 55.7619C8.4746 61.2911 14.0608 64.8822 20.73 65.6232C21.4711 65.6802 22.2121 65.7372 23.0101 65.7942C23.7511 65.8512 24.5492 65.7942 25.2902 65.7372C32.0734 65.2812 37.8306 61.8041 41.1368 56.2179C44.1579 51.0877 44.4429 45.1025 41.9918 39.8013L25.5752 4.46006C25.0052 3.32002 23.7511 2.864 22.7821 2.864Z" fill="#EBECF2"/>
<path d="M34.4563 51.0877C33.8863 50.5177 32.9743 50.5177 32.4613 51.0877L23.968 59.467V28.7429C23.968 27.9449 23.3409 27.3179 22.5429 27.3179C21.7449 27.3179 21.1179 28.0019 21.1179 28.7429V52.3988L13.4226 44.6465C12.8526 44.0765 11.9975 44.0765 11.4275 44.6465C10.8575 45.2165 10.8575 46.1285 11.4275 46.6416L20.6618 55.9899C20.7758 56.1039 20.9469 56.1039 21.1179 56.1609V89.8491C21.1179 90.6471 21.7449 91.2741 22.5429 91.2741C23.3409 91.2741 23.968 90.6471 23.968 89.8491V63.4572L34.4563 53.0828C34.9693 52.5128 35.0264 51.6577 34.4563 51.0877Z" fill="#EBECF2"/>
</svg>
