<svg width="21" height="20" viewBox="0 0 21 20" fill="none" xmlns="http://www.w3.org/2000/svg">
<path fill-rule="evenodd" clip-rule="evenodd" d="M7.50574 13.3334C6.12502 13.3334 5.00574 14.4527 5.00574 15.8334C5.00574 16.2937 5.37883 16.6667 5.83907 16.6667H14.1724C14.6326 16.6667 15.0057 16.2937 15.0057 15.8334C15.0057 14.4527 13.8864 13.3334 12.5057 13.3334H7.50574ZM3.33907 15.8334C3.33907 13.5322 5.20455 11.6667 7.50574 11.6667H12.5057C14.8069 11.6667 16.6724 13.5322 16.6724 15.8334C16.6724 17.2141 15.5531 18.3334 14.1724 18.3334H5.83907C4.45836 18.3334 3.33907 17.2141 3.33907 15.8334Z" fill="white"/>
<path fill-rule="evenodd" clip-rule="evenodd" d="M10.0057 3.33341C8.62502 3.33341 7.50574 4.4527 7.50574 5.83341C7.50574 7.21413 8.62502 8.33341 10.0057 8.33341C11.3864 8.33341 12.5057 7.21413 12.5057 5.83341C12.5057 4.4527 11.3864 3.33341 10.0057 3.33341ZM5.83907 5.83341C5.83907 3.53223 7.70455 1.66675 10.0057 1.66675C12.3069 1.66675 14.1724 3.53223 14.1724 5.83341C14.1724 8.1346 12.3069 10.0001 10.0057 10.0001C7.70455 10.0001 5.83907 8.1346 5.83907 5.83341Z" fill="white"/>
</svg>
